<?xml version="1.0" encoding="UTF-8" standalone="no"?>
<svg
   xmlns:dc="http://purl.org/dc/elements/1.1/"
   xmlns:cc="http://creativecommons.org/ns#"
   xmlns:rdf="http://www.w3.org/1999/02/22-rdf-syntax-ns#"
   xmlns:svg="http://www.w3.org/2000/svg"
   xmlns="http://www.w3.org/2000/svg"
   xmlns:sodipodi="http://sodipodi.sourceforge.net/DTD/sodipodi-0.dtd"
   xmlns:inkscape="http://www.inkscape.org/namespaces/inkscape"
   viewBox="0 0 1913.7733 457.14667"
   height="457.14667"
   width="1913.7733"
   xml:space="preserve"
   id="svg2"
   version="1.1"
   sodipodi:docname="team_logo2.svg"
   inkscape:version="0.92.2 (5c3e80d, 2017-08-06)"><sodipodi:namedview
     pagecolor="#ffffff"
     bordercolor="#666666"
     borderopacity="1"
     objecttolerance="10"
     gridtolerance="10"
     guidetolerance="10"
     inkscape:pageopacity="0"
     inkscape:pageshadow="2"
     inkscape:window-width="2560"
     inkscape:window-height="1346"
     id="namedview3723"
     showgrid="false"
     inkscape:zoom="0.53062711"
     inkscape:cx="566.72886"
     inkscape:cy="112.26211"
     inkscape:window-x="-11"
     inkscape:window-y="-11"
     inkscape:window-maximized="1"
     inkscape:current-layer="svg2" /><metadata
     id="metadata8"><rdf:RDF><cc:Work
         rdf:about=""><dc:format>image/svg+xml</dc:format><dc:type
           rdf:resource="http://purl.org/dc/dcmitype/StillImage" /><dc:title></dc:title></cc:Work></rdf:RDF></metadata><defs
     id="defs6" /><g
     transform="matrix(1.3333333,0,0,-1.3333333,0,457.14667)"
     id="g10"><g
       transform="scale(0.1)"
       id="g12"><path
         id="path14"
         style="fill:#ffb300;fill-opacity:1;fill-rule:nonzero;stroke:none"
         d="m 14273.7,1608.5 h -383.2 l -119.3,-432.59 c -41.5,-156.36 -81.3,-328.359 -110.2,-482.98 h -7.3 c -27.1,158.109 -66.8,321.43 -106.6,481.24 L 13435,1608.5 h -388.6 l -95.8,-1342.98 h 285.6 l 23.5,477.8 c 7.2,144.2 16.3,333.56 21.7,500.34 h 5.4 c 29,-165.05 68.7,-347.469 103,-476.019 l 124.8,-477.782 h 240.4 l 137.3,481.262 c 38,128.551 86.8,310.989 123,472.539 h 5.4 c -1.9,-177.18 5.4,-356.14 12.6,-498.609 l 19.9,-479.531 h 300.1 z m -2126.6,-799.168 63.3,269.278 c 16.2,76.46 39.7,199.79 57.8,281.47 h 3.6 c 18.1,-81.68 41.6,-201.54 59.7,-281.47 l 61.4,-269.278 z m 336.2,799.168 h -403.1 L 11711.5,265.52 h 321.7 l 75.9,312.761 h 321.7 l 81.4,-312.761 h 329 z M 11613.8,520.93 h -475.3 v 312.742 h 424.7 v 250.158 h -424.7 v 269.27 h 448.2 v 255.4 h -766.3 V 265.52 h 793.4 V 520.93 Z M 10682,1608.5 h -954.38 v -267.55 h 316.28 V 265.52 h 318.2 V 1340.95 H 10682 Z M 8874.49,265.52 h 318.09 V 1608.5 h -318.09 z m -805.38,748.84 v 363.09 c 18.1,5.19 52.45,8.67 103.06,8.67 74.08,0 191.58,-29.52 191.58,-182.41 0,-109.46 -77.71,-189.35 -211.48,-189.35 z M 8450.5,899.672 c 128.34,48.66 231.37,171.988 231.37,330.098 0,368.31 -365.13,387.42 -551.29,387.42 -144.61,0 -280.15,-12.14 -377.75,-27.78 V 265.52 h 316.28 v 522.941 h 61.47 c 106.66,0 155.46,-43.41 186.16,-206.731 30.74,-158.109 66.87,-277.96 84.97,-316.21 h 328.98 c -27.14,52.121 -66.88,231.089 -103.05,375.281 -32.53,128.558 -81.33,215.437 -177.14,251.941 z M 7614.43,1608.5 h -954.37 v -267.55 h 316.33 V 265.52 h 318.11 v 1075.43 h 319.93 v 267.55 0"
         inkscape:connector-curvature="0" /><path
         id="path16"
         style="fill:#ffb300;fill-opacity:1;fill-rule:nonzero;stroke:none"
         d="m 14107.7,3140.91 -171.8,-361.83 c -47.2,-103.45 -90.6,-196.02 -126.6,-288.89 h -3.7 c -37.8,98.31 -79.3,185.44 -126.5,287.08 l -170,363.64 h -247.4 l 424.9,-808.65 v -581.73 h 219.1 v 587.19 l 447.6,803.19 z m -639.8,-1212.5 h -557 v 1212.5 h -219.1 V 1750.53 h 776.1 z m -1547.4,1060.03 c 258.8,0 379.6,-272.28 379.6,-537.28 0,-295.87 -130.3,-548.17 -383.3,-548.17 -249.3,0 -381.5,257.73 -381.5,539.09 0,272.26 119,546.36 385.2,546.36 z m 7.6,172.44 c -370.2,0 -623.2,-286.77 -623.2,-724.25 0,-419.26 236.1,-706.09 604.3,-706.09 351.3,0 621.3,245.04 621.3,727.88 0,399.34 -219,702.46 -602.4,702.46 z m -1369.9,-188.77 c 28.3,5.44 79.3,12.7 147.3,12.7 175.6,0 296.5,-85.32 296.5,-254.11 0,-177.9 -120.9,-277.72 -321,-277.72 -51,0 -90.7,1.82 -122.8,10.88 z M 10341,1750.53 h 217.2 v 544.54 c 35.9,-7.28 77.4,-9.09 122.8,-9.09 260.6,0 540.1,116.16 540.1,453.78 0,127.05 -49.1,232.35 -130.3,299.51 -86.9,74.41 -221,110.71 -398.5,110.71 -149.2,0 -264.4,-12.7 -351.3,-27.21 V 1750.53 Z m -490.59,177.88 h -557.06 v 1212.5 H 9074.27 V 1750.53 h 776.14 z m -1681.49,392.08 115.2,365.42 c 24.55,85.92 47.23,187.89 68.02,273.49 h 3.77 c 20.77,-85.6 45.31,-183.94 71.79,-275.01 l 113.28,-363.9 z m 326.74,820.42 H 8227.47 L 7785.59,1750.53 h 224.71 l 124.66,408.39 h 441.9 l 130.3,-408.39 H 8937.5 Z M 7634.51,1957.45 c -62.33,-29.04 -162.39,-49.03 -260.58,-49.03 -298.41,0 -483.48,190.6 -483.48,531.83 0,361.22 207.74,542.75 487.24,542.75 107.65,0 192.62,-23.6 253.04,-50.84 l 47.19,172.45 c -39.64,19.97 -141.6,54.46 -307.82,54.46 -400.32,0 -710.04,-257.77 -710.04,-729.69 0,-442.88 270.06,-698.84 672.3,-698.84 156.72,0 279.52,29.05 339.93,58.08 l -37.78,168.83 v 0"
         inkscape:connector-curvature="0" /><path
         id="path18"
         style="fill:#ffb300;fill-opacity:1;fill-rule:nonzero;stroke:none"
         d="M 6402.47,3428.62 V 0 h -30.15 v 3428.62 h 30.15 v 0"
         inkscape:connector-curvature="0" /><path
         id="path20"
         style="fill:#ffb300;fill-opacity:1;fill-rule:evenodd;stroke:none"
         d="M 439.996,976.301 C 656.184,1167.1 957.18,1244.51 1240.97,1215.3 c 225.4,-19.2 452.59,-100.4 615.59,-261.98 109.19,-108.218 184.59,-247.609 223.59,-396 -232,33.801 -467.99,45.399 -701.59,22 72.2,67.801 78,180.989 26.01,262.2 -93.6,149.179 -273.2,221.98 -443.394,232.17 -180.196,17.43 -353.781,-39.8 -521.18,-97.389 z M 2388.34,1125.91 c 67.81,15.8 147,8.79 198.41,-42.81 61.58,-58.59 61.39,-154.6 37.38,-230.588 -51.19,-142.59 -189.59,-260.992 -344.98,-262.203 -91.59,-2.598 -176.81,72.613 -181.2,165 -9.6,171.992 128.2,328.591 290.39,370.601 z M 1134.17,480.32 c 304.58,42.59 615.99,53.012 920.58,5.2 283.19,-41.59 556.18,-138.411 842.38,-162.989 278.2,-28.621 557.99,7.391 830.79,61.989 C 3437.71,166.332 3053.13,100.742 2699.13,155.531 2210.75,240.91 1718.96,345.719 1220.18,323.332 869.773,309.129 528.188,219.93 192.805,124.52 127.402,105.719 69.3945,63.5391 0,59.3203 v 7.2188 C 352.395,263.512 733.184,419.332 1134.17,480.32 v 0"
         inkscape:connector-curvature="0" /><path
         id="path22"
         style="fill:#ffb300;fill-opacity:1;fill-rule:evenodd;stroke:none"
         d="m 4706.93,2990.61 c 58.25,30.47 128.85,14.8 184.03,-15.51 116.62,-66.45 194.49,-205.38 173.97,-340.55 -12.06,-77.75 -84.15,-144.66 -165.32,-136.48 -140.68,11.5 -249.8,138.65 -277.01,271.28 -18.87,80.9 4.98,181.68 84.33,221.26 z M 3536.64,2506.18 c 207.21,103.64 444.7,158.07 676.29,127.06 172.35,-22.88 335.05,-90.22 487.6,-171.28 189.47,-102.41 400.39,-172.14 617.03,-177.06 206.04,-14.25 411.77,64.26 564.72,201.03 -81,-198.76 -259.52,-350.44 -462.93,-413.52 -130.33,-42.88 -269.46,-38.1 -404.63,-34.88 -9.33,-43.51 -19.43,-86.53 -30.83,-129.42 304.26,-120.75 580.93,-327.24 751.71,-609.84 124.53,-208.24 202.56,-449.368 201.44,-693.188 -106.53,254.52 -266.01,493.458 -489.62,659.578 -169.69,126.92 -379.27,198.57 -591.38,201.77 -98.99,-222.58 -287.9,-404.23 -519.3,-484.039 -345.83,-121.301 -747.51,-82.141 -1061.83,105.699 270.54,-41.01 562.86,-31.64 809.17,99.42 211.37,110.73 366.62,323.13 400.96,560.11 32.85,206.12 -25.87,433.02 -180.23,578.95 -203.89,185.81 -505.21,218.56 -768.17,179.61 v 0 0"
         inkscape:connector-curvature="0" /><path
         id="path24"
         style="fill:#ffb300;fill-opacity:1;fill-rule:evenodd;stroke:none"
         d="m 3634.12,1974.5 c -343.57,-81.67 -630.24,-357.45 -743.69,-689.58 -51.08,-154.48 -56.52,-337.139 38.02,-476.35 84.08,-128.351 246.02,-184.05 394.27,-173.8 227.32,17.312 435.93,137.191 594.64,296.32 161.53,163.54 281.82,379.39 293.28,612.52 1.63,123.12 -36.8,253.87 -131.55,337.36 -116.68,110.83 -293.69,129.33 -444.97,93.53 z m -78.86,158.92 c 179.25,38.42 383.22,12.87 524.23,-112.25 135.58,-115.26 188.48,-303.35 171.38,-476.14 -22.31,-245.83 -149.66,-473.14 -323.26,-644.94 -195.73,-194.309 -465.48,-334.711 -746.9,-318.211 -167.37,5.41 -333.54,93.93 -419.22,239.781 -96.96,162.121 -94.75,366.11 -39.83,542.32 119.89,375.76 446.57,684.54 833.6,769.44 z M 1009.58,1983.54 C 684.313,1932.46 407.91,1695.9 261.25,1407.22 177.578,1235.24 135.328,1021 228.266,844.191 295.465,713.621 440.094,638.789 583.926,635.57 c 223.492,-6.23 435.704,100.18 600.054,245.02 184.67,164.76 326.88,392.06 345.6,643.12 6.23,128.93 -30.98,267.32 -129.16,356.24 -102.78,96.97 -254.65,124.72 -390.84,103.59 z m -115.873,151.69 c 166.363,34.2 352.233,13.69 491.043,-90.73 125.52,-91.93 195.92,-246.41 200.34,-400.11 10.88,-226.1 -80.65,-446.58 -217.04,-623.2 C 1200.48,804.332 957.883,637.18 685.313,589.32 509.297,558.551 311.145,591.121 178.391,718.25 55.8789,828.699 6.78906,1000.87 16.6445,1161.8 31.5313,1395.96 143.785,1615.44 300.688,1786.42 457.793,1957.6 663.98,2089.56 893.707,2135.23 Z M 3446.04,3188.91 c 65.38,27.16 139.61,3.41 195.53,-34.6 102.99,-71.62 169.57,-197.54 159.92,-324.07 -2.21,-69.2 -41.43,-140.81 -108.43,-165.95 -72.81,-26.37 -154.48,0.39 -212.42,47.46 -95.35,75.85 -156.1,200.16 -142.42,322.66 5.63,65.58 45.05,129.95 107.82,154.5 z m -1673.66,65.38 c 424.46,208.8 971.8,133.57 1322.02,-185.27 168.18,-154.3 276.6,-358.07 401.53,-545.75 122.51,-180.66 346.79,-315.62 569.89,-263.31 -145.24,-71.22 -318.65,-54.94 -463.28,9.25 -194.93,85.69 -349.82,239.37 -483.18,401.5 -163.14,190.7 -415.81,297.93 -666.45,281.04 144.83,-99.79 283.43,-228.32 333.71,-402.54 57.34,-189.49 -0.38,-391.45 -91.51,-560.22 -103.6,-184.86 -243.01,-348.43 -399.72,-490.23 109.23,162.74 221.69,330.7 261.92,526.24 39.63,166.57 7.03,364.49 -124.92,482.38 -110.44,93.33 -268.15,82.88 -398.7,45.46 -21.74,-9.25 -56.33,-6.84 -62.96,-35.61 -43.85,-110.44 -49.49,-231.52 -48.29,-349.02 12.68,-405.34 125.13,-797.99 228.73,-1187.249 -209.8,391.669 -453.82,765.829 -635.07,1172.569 -96.75,209.62 -149.46,449.59 -91.73,677.51 42.84,185.28 178.43,340.57 348.01,423.25 v 0"
         inkscape:connector-curvature="0" /></g></g></svg>